<?xml version="1.0" encoding="UTF-8" standalone="no"?>
<!-- Created with Inkscape (http://www.inkscape.org/) -->

<svg
   width="64pt"
   height="64pt"
   viewBox="0 0 22.577778 22.577778"
   version="1.1"
   id="svg831"
   inkscape:version="1.1.1 (3bf5ae0d25, 2021-09-20)"
   sodipodi:docname="Export.svg"
   inkscape:export-filename="C:\Users\User\Desktop\CARLOS PROJECT\5. MAY 1\Done\Flat\06 - Boxing Glove.png"
   inkscape:export-xdpi="576"
   inkscape:export-ydpi="576"
   xmlns:inkscape="http://www.inkscape.org/namespaces/inkscape"
   xmlns:sodipodi="http://sodipodi.sourceforge.net/DTD/sodipodi-0.dtd"
   xmlns="http://www.w3.org/2000/svg"
   xmlns:svg="http://www.w3.org/2000/svg"
   xmlns:rdf="http://www.w3.org/1999/02/22-rdf-syntax-ns#"
   xmlns:cc="http://creativecommons.org/ns#"
   xmlns:dc="http://purl.org/dc/elements/1.1/">
  <defs
     id="defs825">
    <pattern
       id="EMFhbasepattern"
       patternUnits="userSpaceOnUse"
       width="6"
       height="6"
       x="0"
       y="0" />
    <pattern
       id="EMFhbasepattern-9"
       patternUnits="userSpaceOnUse"
       width="6"
       height="6"
       x="0"
       y="0" />
    <pattern
       id="EMFhbasepattern-0"
       patternUnits="userSpaceOnUse"
       width="6"
       height="6"
       x="0"
       y="0" />
    <pattern
       id="EMFhbasepattern-7"
       patternUnits="userSpaceOnUse"
       width="6"
       height="6"
       x="0"
       y="0" />
    <pattern
       id="EMFhbasepattern-2"
       patternUnits="userSpaceOnUse"
       width="6"
       height="6"
       x="0"
       y="0" />
    <pattern
       id="EMFhbasepattern-98"
       patternUnits="userSpaceOnUse"
       width="6"
       height="6"
       x="0"
       y="0" />
    <pattern
       id="EMFhbasepattern-6"
       patternUnits="userSpaceOnUse"
       width="6"
       height="6"
       x="0"
       y="0" />
    <pattern
       id="EMFhbasepattern-01"
       patternUnits="userSpaceOnUse"
       width="6"
       height="6"
       x="0"
       y="0" />
    <pattern
       id="EMFhbasepattern-07"
       patternUnits="userSpaceOnUse"
       width="6"
       height="6"
       x="0"
       y="0" />
    <pattern
       id="EMFhbasepattern-8"
       patternUnits="userSpaceOnUse"
       width="6"
       height="6"
       x="0"
       y="0" />
    <pattern
       id="EMFhbasepattern-4"
       patternUnits="userSpaceOnUse"
       width="6"
       height="6"
       x="0"
       y="0" />
    <pattern
       id="EMFhbasepattern-40"
       patternUnits="userSpaceOnUse"
       width="6"
       height="6"
       x="0"
       y="0" />
    <pattern
       id="EMFhbasepattern-08"
       patternUnits="userSpaceOnUse"
       width="6"
       height="6"
       x="0"
       y="0" />
    <pattern
       id="EMFhbasepattern-04"
       patternUnits="userSpaceOnUse"
       width="6"
       height="6"
       x="0"
       y="0" />
    <pattern
       id="EMFhbasepattern-014"
       patternUnits="userSpaceOnUse"
       width="6"
       height="6"
       x="0"
       y="0" />
    <pattern
       id="EMFhbasepattern-27"
       patternUnits="userSpaceOnUse"
       width="6"
       height="6"
       x="0"
       y="0" />
    <pattern
       id="EMFhbasepattern-09"
       patternUnits="userSpaceOnUse"
       width="6"
       height="6"
       x="0"
       y="0" />
    <pattern
       id="EMFhbasepattern-5"
       patternUnits="userSpaceOnUse"
       width="6"
       height="6"
       x="0"
       y="0" />
    <pattern
       id="EMFhbasepattern-018"
       patternUnits="userSpaceOnUse"
       width="6"
       height="6"
       x="0"
       y="0" />
  </defs>
  <sodipodi:namedview
     id="base"
     pagecolor="#ffffff"
     bordercolor="#666666"
     borderopacity="1.0"
     inkscape:pageopacity="0.0"
     inkscape:pageshadow="2"
     inkscape:zoom="6.5876941"
     inkscape:cx="28.082664"
     inkscape:cy="49.258511"
     inkscape:document-units="pt"
     inkscape:current-layer="layer1"
     showgrid="false"
     units="pt"
     inkscape:window-width="1920"
     inkscape:window-height="1001"
     inkscape:window-x="-9"
     inkscape:window-y="-9"
     inkscape:window-maximized="1"
     inkscape:pagecheckerboard="true"
     inkscape:showpageshadow="false"
     inkscape:object-paths="true"
     inkscape:snap-intersection-paths="true"
     inkscape:snap-smooth-nodes="true"
     inkscape:snap-midpoints="true"
     showguides="true"
     inkscape:snap-bbox="true"
     inkscape:bbox-nodes="true"
     inkscape:snap-nodes="false"
     inkscape:snap-global="true">
    <inkscape:grid
       type="xygrid"
       id="grid1378" />
    <sodipodi:guide
       position="0.97013831,21.607643"
       orientation="78.000048,0"
       id="guide1380"
       inkscape:locked="false" />
    <sodipodi:guide
       position="0.97013831,0.97013129"
       orientation="0,78.000005"
       id="guide1382"
       inkscape:locked="false" />
    <sodipodi:guide
       position="21.607639,0.97013129"
       orientation="-78.000048,0"
       id="guide1384"
       inkscape:locked="false" />
    <sodipodi:guide
       position="21.607639,21.607643"
       orientation="0,-78.000005"
       id="guide1386"
       inkscape:locked="false" />
  </sodipodi:namedview>
  <metadata
     id="metadata828">
    <rdf:RDF>
      <cc:Work
         rdf:about="">
        <dc:format>image/svg+xml</dc:format>
        <dc:type
           rdf:resource="http://purl.org/dc/dcmitype/StillImage" />
      </cc:Work>
    </rdf:RDF>
  </metadata>
  <g
     inkscape:label="Icon"
     inkscape:groupmode="layer"
     id="layer1"
     transform="translate(0,-274.42223)">
    <g
       id="g601281"
       style="display:inline;stroke-width:0.770573"
       transform="matrix(1.2977351,0,0,1.2977351,39.557951,-88.701905)">
      <path
         style="color:#000000;fill:#a3b9c9;fill-opacity:1;stroke-width:0.770573;stroke-linecap:round;stroke-linejoin:round;-inkscape-stroke:none"
         d="m -19.078125,281.36914 c -0.441987,0 -0.816407,0.35151 -0.816406,0.79297 v 0.67383 a 0.26460996,0.26460996 0 0 0 0.265625,0.26367 h 4.1875 a 0.26460996,0.26460996 0 0 0 0.263672,-0.26367 v -0.67383 c 10e-7,-0.44146 -0.37442,-0.79297 -0.816407,-0.79297 z"
         id="path501701" />
      <path
         id="path573697"
         style="color:#000000;fill:#97abba;fill-opacity:1;stroke-width:2.9124;stroke-linecap:round;stroke-linejoin:round;-inkscape-stroke:none"
         d="M -57.365234,10.466797 V 7.9199219 c 3e-6,-1.6685102 -1.415436,-2.9980469 -3.085938,-2.9980469 h -11.654297 c -1.375784,0 -2.577482,0.9023348 -2.958984,2.1523438 0.303162,-0.097502 0.626431,-0.1523438 0.958984,-0.1523438 h 11.654297 c 1.670502,0 3.085941,1.3295367 3.085938,2.9980469 z"
         transform="matrix(0.26458334,0,0,0.26458334,0,280.06666)"
         sodipodi:nodetypes="cssscsscc" />
      <path
         style="color:#000000;fill:#c8dae5;stroke-width:0.770573;stroke-linecap:round;stroke-linejoin:round;-inkscape-stroke:none"
         d="m -19.628906,282.57031 a 0.26460996,0.26460996 0 0 0 -0.238281,0.14844 l -1.345704,2.76758 a 0.26460996,0.26460996 0 0 0 0.236329,0.38086 h 2.693359 a 0.26460996,0.26460996 0 0 0 0.238281,-0.38086 l -1.347656,-2.76758 a 0.26460996,0.26460996 0 0 0 -0.236328,-0.14844 z"
         id="path501893" />
      <path
         style="color:#000000;fill:#c8dae5;stroke-width:0.770573;stroke-linecap:round;stroke-linejoin:round;-inkscape-stroke:none"
         d="m -20.976562,285.33789 a 0.26460996,0.26460996 0 0 0 -0.263672,0.26367 v 9.79102 a 0.26460996,0.26460996 0 0 0 0.263672,0.26367 h 2.693359 a 0.26460996,0.26460996 0 0 0 0.263672,-0.26367 v -9.79102 a 0.26460996,0.26460996 0 0 0 -0.263672,-0.26367 z"
         id="path502477" />
      <path
         style="color:#000000;fill:#26783f;stroke-width:0.770573;stroke-linecap:round;stroke-linejoin:round;-inkscape-stroke:none"
         d="m -26.222618,286.34573 c -0.334345,-1.11293 -0.129915,-2.55283 -0.884771,-3.43752 -0.146916,-0.13108 -0.342356,-0.21287 -0.565802,-0.21288 -0.223446,-1e-5 -0.444179,0.11275 -0.600246,0.28123 -0.156068,0.16848 -0.263694,0.38608 -0.345704,0.63672 -0.164018,0.50129 -0.228515,1.14847 -0.228515,1.85938 0,0.32765 0.05519,0.52023 0.08789,0.76757 0.0021,0.0146 0.0053,0.029 0.0098,0.043 l 0.433594,1.41211 z"
         id="path187212"
         sodipodi:nodetypes="cccssscccc" />
      <path
         style="color:#000000;fill:#26783f;stroke-width:0.770573;stroke-linecap:round;stroke-linejoin:round;-inkscape-stroke:none"
         d="m -25.328125,283.79687 -1.652344,1.04688 c -0.09782,0.0614 -0.144466,0.17926 -0.115234,0.29102 l 0.740234,2.80664 c 0.04786,0.18124 0.263811,0.25662 0.414063,0.14453 l 1.810547,-1.35157 c 0.05871,-0.0434 0.09688,-0.10914 0.105468,-0.18164 l 0.244141,-2.10742 -0.609735,-0.6867 z"
         id="path187596"
         sodipodi:nodetypes="cccccccccc" />
      <path
         id="path501650"
         style="color:#000000;fill:#1f6636;fill-opacity:1;stroke-width:0.770573;stroke-linecap:round;stroke-linejoin:round;-inkscape-stroke:none"
         d="m -25.328169,284.32586 c 0.17189,-0.1289 0.350348,-0.22552 0.543121,-0.26562 0.192773,-0.0401 0.403053,-0.0133 0.581877,0.0899 0.208812,0.12056 0.336164,0.3246 0.391708,0.55191 l 0.02997,-0.25684 c 0.0018,-0.0135 0.0025,-0.0272 0.0021,-0.0408 -0.01158,-0.3147 -0.14573,-0.62289 -0.423746,-0.78341 -0.212284,-0.12243 -0.371026,-0.10088 -0.581912,-0.0899 v -2e-5 c -0.192773,0.0401 -0.371231,0.13671 -0.543121,0.26561 z"
         sodipodi:nodetypes="csccccccccc" />
      <path
         id="path489380"
         style="color:#000000;fill:#1f6636;fill-opacity:1;stroke-width:0.770573;stroke-linecap:round;stroke-linejoin:round;-inkscape-stroke:none"
         d="m -26.769426,283.41012 c -0.0844,-0.19759 -0.191048,-0.37069 -0.337963,-0.50178 -0.146918,-0.13108 -0.342334,-0.21289 -0.565762,-0.21289 -0.223429,0 -0.443994,0.11263 -0.600061,0.28111 -0.156067,0.16848 -0.263705,0.38601 -0.345715,0.63665 -0.164018,0.50129 -0.228925,1.14841 -0.228925,1.85932 0,0.0631 0.0027,0.12129 0.0062,0.1757 0.01889,-0.57132 0.08634,-1.08903 0.222723,-1.50585 0.08201,-0.25064 0.189649,-0.46817 0.345716,-0.63665 0.156067,-0.16848 0.376631,-0.28111 0.617019,-0.28112 0.20647,2e-5 0.401886,0.0818 0.548804,0.2129 z"
         sodipodi:nodetypes="cccssscssccc" />
      <path
         id="path498629"
         style="fill:#1f6636;fill-opacity:1;stroke-width:2.9124;stroke-linecap:round;stroke-linejoin:round"
         d="m -92.978516,13.027344 c -0.235039,-0.0031 -0.469582,0.01904 -0.697265,0.06641 -0.728591,0.151559 -1.403083,0.516725 -2.052735,1.003906 l -6.244144,3.957032 a 1.0001006,1.0001006 0 0 0 -0.43554,1.099609 l 2.765622,10.492187 0.755859,0.04297 a 1.600933,1.600933 0 0 0 0,0.0078 c 1.147302,0.06501 2.285447,-0.734797 2.626953,-1.832032 l 3.189454,-10.28125 0.01367,-0.04492 0.02344,-0.05273 a 1.600933,1.600933 0 0 0 0.04297,-0.154297 c 0.385168,-1.437456 0.690403,-2.834676 0.873046,-4.171875 -0.28145,-0.0841 -0.571789,-0.129043 -0.861328,-0.132812 z"
         transform="matrix(0.26458334,0,0,0.26458334,0,280.06666)" />
      <path
         id="path498750"
         style="color:#000000;fill:#1f6636;fill-opacity:1;stroke-width:2.9124;stroke-linecap:round;stroke-linejoin:round;-inkscape-stroke:none"
         d="m -102.45313,10.740234 c -0.28835,-0.257268 -0.62673,-0.463911 -0.99415,-0.603515 h 1e-5 c -0.50788,1.248176 -0.93982,2.608408 -1.32421,4.042969 -0.36923,1.377864 -0.62819,2.718209 -0.76758,3.99414 -4.6e-4,0.02213 -4.6e-4,0.04428 0,0.06641 l -0.80469,8.31836 c -1e-5,0.0026 -1e-5,0.0052 0,0.0078 -0.0923,0.976797 0.46421,1.944334 1.28711,2.458985 l 5.578124,-4.31836 z"
         transform="matrix(0.26458334,0,0,0.26458334,0,280.06666)"
         sodipodi:nodetypes="csscccccccc" />
      <path
         style="color:#000000;fill:#349951;stroke-width:0.770573;stroke-linecap:round;stroke-linejoin:round;-inkscape-stroke:none"
         d="m -26.113281,281.66406 c -0.194357,0.12235 -0.35396,0.30451 -0.498047,0.52539 -0.288174,0.44176 -0.517177,1.05161 -0.701172,1.73828 -0.09234,0.34461 -0.15509,0.67962 -0.189453,0.99414 -10e-6,10e-4 -10e-6,0.003 0,0.004 l -0.212891,2.20899 c -0.0141,0.14921 0.09842,0.28034 0.248047,0.28906 l 1.326172,0.0762 c 0.121194,0.007 0.231503,-0.0696 0.267578,-0.18555 l 0.857422,-2.76172 c 0.0014,-0.003 0.0027,-0.007 0.0039,-0.01 0.183996,-0.68668 0.288452,-1.32881 0.259766,-1.85547 -0.01434,-0.26333 -0.06082,-0.49999 -0.167969,-0.70313 -0.107144,-0.20313 -0.291239,-0.36942 -0.523434,-0.43157 -0.232195,-0.0622 -0.475563,-0.011 -0.669919,0.11138 z"
         id="path187404"
         sodipodi:nodetypes="cssccccccccsscc" />
      <path
         style="color:#000000;fill:#e2f0fa;stroke-width:0.770573;stroke-linecap:round;stroke-linejoin:round;-inkscape-stroke:none"
         d="m -18.283203,285.33789 a 0.26460996,0.26460996 0 0 0 -0.265625,0.26367 v 9.79102 a 0.26460996,0.26460996 0 0 0 0.265625,0.26367 H -14.625 c 0.429281,0 0.792969,-0.3422 0.792969,-0.77148 v -9.28321 a 0.26460996,0.26460996 0 0 0 -0.263672,-0.26367 z"
         id="path502285" />
      <path
         id="path557543"
         style="color:#000000;fill:#c8dae5;fill-opacity:1;stroke-width:2.9124;stroke-linecap:round;stroke-linejoin:round;-inkscape-stroke:none"
         d="m -54.279297,29.692945 v 29.060961 c 1.151645,-0.400209 2,-1.472541 2,-2.748047 V 20.919922 c -0.0011,-0.549978 -0.446119,-0.995845 -0.996094,-0.998047 h -15.826171 c -0.553025,-0.0021 -1.002775,0.44502 -1.003907,0.998047 v 3.001953 h 10.055102 a 5.7710699,5.7710699 45 0 1 5.77107,5.77107 z"
         transform="matrix(0.26458334,0,0,0.26458334,0,280.06666)"
         sodipodi:nodetypes="ccscccccc" />
      <path
         style="color:#000000;fill:#e2f0fa;stroke-width:0.770573;stroke-linecap:round;stroke-linejoin:round;-inkscape-stroke:none"
         d="m -19.628906,282.57031 a 0.26460996,0.26460996 0 0 0 -0.238281,0.38086 l 1.345703,2.76758 a 0.26460996,0.26460996 0 0 0 0.238281,0.14844 h 4.1875 a 0.26460996,0.26460996 0 0 0 0.236328,-0.38086 l -1.345703,-2.76758 a 0.26460996,0.26460996 0 0 0 -0.236328,-0.14844 z"
         id="path502085" />
      <path
         style="color:#000000;fill:#70c2ef;stroke-width:0.770573;stroke-linecap:round;stroke-linejoin:round;-inkscape-stroke:none"
         d="m -16.15625,288.46484 c -0.183936,-0.0375 -0.3915,0.0116 -0.583984,0.13477 -0.279577,0.17896 -0.500086,0.45232 -0.572266,0.79883 -0.09038,0.4339 0.17317,0.766 0.353516,1 0.09017,0.117 0.165866,0.22018 0.199218,0.29101 0.05631,0.19866 -0.130107,0.30318 -0.244139,0.3418 -0.140269,0.0519 -0.337895,0.0797 -0.546875,0.11719 -0.20898,0.0375 -0.435034,0.0813 -0.638672,0.22265 -0.203638,0.14137 -0.350672,0.40225 -0.359375,0.72071 -4e-5,0.003 -4e-5,0.005 0,0.008 v 3.29297 c 5.18e-4,0.14617 0.119455,0.26423 0.265625,0.26367 H -14.625 c 0.429281,0 0.792969,-0.3422 0.792969,-0.77148 v -5.45508 c -6e-5,-0.0914 -0.04732,-0.17637 -0.125,-0.22461 -0.173532,-0.10768 -0.322241,-0.16712 -0.466797,-0.18555 -0.144557,-0.0184 -0.274752,0.0123 -0.363281,0.0449 -0.177059,0.0653 -0.187694,0.10934 -0.382813,0.0605 -0.187904,-0.047 -0.340292,-0.22718 -0.558594,-0.42188 -0.10915,-0.0973 -0.243798,-0.2008 -0.427734,-0.23828 z"
         id="path502677"
         sodipodi:nodetypes="ccssccccccccsscccccccc" />
      <path
         id="path36372"
         style="color:#000000;fill:#5aabdd;stroke-width:2.9124;stroke-linecap:round;stroke-linejoin:round;-inkscape-stroke:none"
         d="m -70.105469,48.925781 v 1.994141 h 6.238281 c 0.553048,0.0022 1.002831,-0.444996 1.003907,-0.998047 -0.0022,-0.552287 -0.451619,-0.998256 -1.003907,-0.996094 z m 0,3.994141 v 2 h 6.238281 c 0.552288,0.0022 1.001754,-0.443807 1.003907,-0.996094 0.0022,-0.55534 -0.448566,-1.00608 -1.003907,-1.003906 z"
         transform="matrix(0.26458334,0,0,0.26458334,0,280.06666)" />
      <path
         id="path36667"
         style="color:#000000;fill:#5aabdd;stroke-width:2.9124;stroke-linecap:round;stroke-linejoin:round;-inkscape-stroke:none"
         d="m -58.515625,23.923828 a 1.0000006,1.0000006 0 0 0 -0.998047,0.996094 1.0000006,1.0000006 0 0 0 0.998047,1.003906 h 6.236328 v -2 z"
         transform="matrix(0.26458334,0,0,0.26458334,0,280.06666)" />
      <path
         style="color:#000000;fill:#5b6571;stroke-width:0.770573;stroke-linecap:round;stroke-linejoin:round;-inkscape-stroke:none"
         d="m -17.404297,283.55273 c -0.30868,0 -0.62182,0.0496 -0.847656,0.27539 a 0.2645835,0.2645835 0 0 0 0,0.37305 0.2645835,0.2645835 0 0 0 0.373047,0 c 0.03875,-0.0387 0.254123,-0.11914 0.474609,-0.11914 0.220486,0 0.435863,0.0804 0.47461,0.11914 a 0.2645835,0.2645835 0 0 0 0.375,0 0.2645835,0.2645835 0 0 0 0,-0.37305 c -0.225837,-0.22583 -0.54093,-0.27539 -0.84961,-0.27539 z"
         id="path37263" />
      <path
         id="path526018"
         style="color:#000000;fill:#a3b9c9;fill-opacity:1;stroke-width:2.9124;stroke-linecap:round;stroke-linejoin:round;-inkscape-stroke:none"
         d="m -79.28125,19.921875 a 1.0001006,1.0001006 0 0 0 -0.996094,0.998047 v 9.77539 l 0.582032,-0.628906 a 1.7465543,1.7465543 0 0 0 0.01562,-0.05273 c 2.745661,-2.086677 3.439162,-5.478833 3.771485,-7.691406 0.132691,-0.87867 -0.232625,-1.786899 -0.869141,-2.400391 z"
         transform="matrix(0.26458334,0,0,0.26458334,0,280.06666)" />
      <path
         id="path520731"
         style="fill:#a3b9c9;fill-opacity:1;stroke-width:2.9124;stroke-linecap:round;stroke-linejoin:round"
         d="m -80.277344,25.666016 v 32.257812 a 1.0001006,1.0001006 0 0 0 0.0957,0.404297 c 6.02012,-2.263883 10.139805,-8.955781 10.142579,-16.443359 v -0.0078 c 7e-6,-0.0023 -4e-6,-0.004 0,-0.0078 7e-6,-0.0023 -4e-6,-0.004 0,-0.0078 -4e-6,-0.0023 7e-6,-0.004 0,-0.0078 v -0.0078 c -4e-6,-0.0023 7e-6,-0.004 0,-0.0078 a 1.7890229,1.7890229 0 0 0 0,-0.002 1.7890229,1.7890229 0 0 0 0,-0.002 1.7890229,1.7890229 0 0 0 0,-0.002 1.7890229,1.7890229 0 0 0 0,-0.002 1.7890229,1.7890229 0 0 0 0,-0.002 1.7890229,1.7890229 0 0 0 0,-0.002 1.7890229,1.7890229 0 0 0 0,-0.002 1.7890229,1.7890229 0 0 0 0,-0.002 1.7890229,1.7890229 0 0 0 0,-0.002 1.7890229,1.7890229 0 0 0 0,-0.002 1.7890229,1.7890229 0 0 0 0,-0.002 1.7890229,1.7890229 0 0 0 0,-0.002 1.7890229,1.7890229 0 0 0 0,-0.002 1.7890229,1.7890229 0 0 0 0,-0.002 1.7890229,1.7890229 0 0 0 0,-0.002 1.7890229,1.7890229 0 0 0 0,-0.002 1.7890229,1.7890229 0 0 0 0,-0.002 1.7890229,1.7890229 0 0 0 0,-0.002 1.7890229,1.7890229 0 0 0 0,-0.002 c -0.09574,-3.84805 -1.485572,-8.623276 -4.496094,-12.238281 -1.451535,-1.742973 -3.361336,-3.23244 -5.742188,-3.896484 z"
         transform="matrix(0.26458334,0,0,0.26458334,0,280.06666)" />
      <path
         id="path524720"
         style="fill:#a3b9c9;fill-opacity:1;stroke-width:2.9124;stroke-linecap:round;stroke-linejoin:round"
         d="m -79.414062,18.921875 -0.759766,1.5625 a 1.0001006,1.0001006 0 0 0 0.892578,1.439453 h 3.400391 c -0.01717,-1.245946 -0.964352,-2.450794 -2.197266,-2.701172 -0.437959,-0.08857 -0.880645,-0.197077 -1.335937,-0.300781 z"
         transform="matrix(0.26458334,0,0,0.26458334,0,280.06666)" />
      <path
         style="color:#000000;fill:#349951;stroke-width:0.770573;stroke-linecap:round;stroke-linejoin:round;-inkscape-stroke:none"
         d="m -21.835937,285.42187 c -0.376042,-0.005 -0.780763,0.10162 -1.25,0.40235 a 0.26460996,0.26460996 0 0 0 -0.0039,0.004 l -2.011718,1.3379 a 0.26460996,0.26460996 0 0 0 -0.06055,0.38476 l 1.599609,2.01367 a 0.26460996,0.26460996 0 0 0 0.402344,0.0156 l 1.736328,-1.87305 -0.05859,0.0469 c 0.677443,-0.40238 0.849716,-1.23914 0.941406,-1.84961 A 0.26460996,0.26460996 0 0 0 -20.75,285.60547 c -0.38105,-0.0771 -0.709896,-0.17847 -1.085937,-0.1836 z"
         id="path488316" />
      <path
         id="path516266"
         style="color:#000000;fill:#26783f;fill-opacity:1;stroke-width:0.770573;stroke-linecap:round;stroke-linejoin:round;-inkscape-stroke:none"
         d="m -22.114413,285.43949 c 0.277839,0.033 0.540767,0.10633 0.835091,0.16588 0.138426,0.0279 0.230541,0.15961 0.20929,0.29921 -0.09014,0.60014 -0.258131,1.41899 -0.907438,1.82883 l -1.63711,1.76578 0.05219,0.0656 c 0.100788,0.12759 0.291731,0.13496 0.402043,0.0155 l 1.71204,-1.84691 c 0.649308,-0.40984 0.817299,-1.22869 0.907438,-1.82883 0.02125,-0.1396 -0.07086,-0.2713 -0.209289,-0.29921 -0.478949,-0.13444 -0.890669,-0.20159 -1.364255,-0.16585 z"
         sodipodi:nodetypes="ccccccccccc" />
      <path
         style="color:#000000;fill:#fca311;fill-opacity:1;stroke-width:0.770573;stroke-linecap:round;stroke-linejoin:round;-inkscape-stroke:none"
         d="m -26.697392,286.3496 c 0.46051,0.12334 0.898812,0.35243 1.166129,0.62699 0.267317,0.27456 0.371064,0.55458 0.253906,0.90235 l -2.769531,6.86328 c -0.146556,0.36331 -0.513289,0.56376 -1.013672,0.42968 -0.500379,-0.13407 -0.720749,-0.491 -0.666015,-0.8789 l 1.035156,-7.33203 c 0.07314,-0.35769 0.302226,-0.54659 0.670472,-0.65057 0.368246,-0.10397 0.863045,-0.0842 1.323555,0.0392 z"
         id="path182192"
         sodipodi:nodetypes="csccccccc" />
      <path
         id="path509443"
         style="fill:#ec7523;fill-opacity:1;stroke-width:2.9124;stroke-linecap:round;stroke-linejoin:round"
         d="m -96.884766,25.753906 c -0.895018,0.427167 -1.749054,0.960135 -2.548828,1.580078 -3.986516,3.090066 -6.888676,8.398791 -6.888676,14.535157 -5e-5,0.01512 -1.5e-4,0.03094 0,0.04492 2e-5,0.0023 -1e-5,0.004 0,0.0078 0.008,3.242545 0.7899,6.333276 2.16211,8.978516 l 8.623051,-21.373047 z"
         transform="matrix(0.26458334,0,0,0.26458334,0,280.06666)"
         sodipodi:nodetypes="cccscccc" />
      <path
         id="path505252"
         style="fill:#26783f;fill-opacity:1;stroke-width:2.9124;stroke-linecap:round;stroke-linejoin:round"
         d="m -94.595703,17.113281 c -1.526342,0.173557 -3.027634,0.664227 -4.505859,1.267566 -0.0052,0.0019 -0.01043,0.0039 -0.01563,0.0059 -1.042928,0.504453 -1.685028,1.727245 -1.513668,2.873047 0.30848,2.074851 0.960629,4.551285 2.566403,6.5625 0.127844,-0.116227 0.223396,-0.263593 0.277344,-0.427735 z"
         transform="matrix(0.26458334,0,0,0.26458334,0,280.06666)"
         sodipodi:nodetypes="ccccccc" />
      <path
         id="path503022"
         style="color:#000000;fill:#ec7523;fill-opacity:1;stroke-width:0.770573;stroke-linecap:round;stroke-linejoin:round;-inkscape-stroke:none"
         d="m -28.021545,286.31076 c -0.33831,0.0955 -0.55893,0.26316 -0.649058,0.56793 0.47387,-0.13331 1.031973,-0.10513 1.468184,0.009 0.436212,0.11441 0.874722,0.34396 1.142041,0.61852 0.267317,0.27456 0.370888,0.5545 0.253731,0.90227 l -2.734718,6.77788 c 0.233654,-0.0614 0.405135,-0.22226 0.494543,-0.4439 l 2.769341,-6.86315 c 0.117158,-0.34777 0.01357,-0.62771 -0.25373,-0.90227 -0.267319,-0.27456 -0.705829,-0.50411 -1.173168,-0.63027 -0.467339,-0.12616 -0.91258,-0.13852 -1.317166,-0.036 z"
         sodipodi:nodetypes="cccsccccccc" />
      <path
         id="path506628"
         style="color:#000000;fill:#e05e10;fill-opacity:1;stroke-width:2.9124;stroke-linecap:round;stroke-linejoin:round;-inkscape-stroke:none"
         d="m -100.00977,24.039062 c 0.61325,1.959208 1.679802,3.945777 3.595708,5.392579 l 0.607421,0.763671 0.269532,-0.667968 c 0.442802,-1.314407 0.05135,-2.372449 -0.958985,-3.410156 -0.836096,-0.858751 -2.115543,-1.600692 -3.513676,-2.078126 z"
         transform="matrix(0.26458334,0,0,0.26458334,0,280.06666)" />
      <path
         id="path515284"
         style="fill:#e05e10;fill-opacity:1;stroke-width:2.9124;stroke-linecap:round;stroke-linejoin:round"
         d="m -95.462889,29.283109 c 0.348651,-1.479403 -0.376555,-2.502758 -1.384863,-3.494516 -0.01294,-0.01129 -0.02402,-0.02392 -0.03711,-0.03516 -5.21e-4,2.49e-4 -0.0014,-2.49e-4 -0.002,0 l 1.43e-4,4.73e-4 c -0.893177,0.426434 -1.744643,0.959671 -2.542969,1.578125 0.349751,0.247146 0.664717,0.510949 0.933594,0.78711 1.010332,1.037707 1.401783,2.09575 0.958985,3.410156 l -7.261721,18 c 0.19636,0.468224 0.40811,0.926631 0.63867,1.371094 l 2.78907,-6.914063 z"
         transform="matrix(0.26458334,0,0,0.26458334,0,280.06666)"
         sodipodi:nodetypes="ccccccsccccc" />
      <path
         style="color:#000000;fill:#349951;stroke-width:0.770573;stroke-linecap:round;stroke-linejoin:round;-inkscape-stroke:none"
         d="m -22.89263,286.18549 c -0.184239,-0.34308 -0.466462,-0.68616 -0.898438,-0.93555 -0.793349,-0.32834 -1.469015,-0.21523 -2.232369,0.0958 -0.104264,0.0504 -0.163616,0.1628 -0.146485,0.27735 0.107781,0.72495 0.337374,1.54457 1.080078,1.99023 z"
         id="path488196"
         sodipodi:nodetypes="cccccc" />
      <path
         style="color:#000000;fill:#1f6636;fill-opacity:1;stroke-width:0.770573;stroke-linecap:round;stroke-linejoin:round;-inkscape-stroke:none"
         d="m -24.587891,286.0332 a 0.2645835,0.2645835 0 0 0 -0.349609,0.13672 0.2645835,0.2645835 0 0 0 0.136719,0.34766 c 0.411095,0.17893 0.855849,0.44538 1.236328,0.7832 a 0.2645835,0.2645835 0 0 0 0.373047,-0.0234 0.2645835,0.2645835 0 0 0 -0.02148,-0.37304 c -0.429956,-0.38176 -0.917108,-0.67179 -1.375,-0.8711 z"
         id="path19538" />
      <path
         style="color:#000000;fill:#1f6636;fill-opacity:1;stroke-width:0.770573;stroke-linecap:round;stroke-linejoin:round;-inkscape-stroke:none"
         d="m -22.564453,285.02925 c -0.55931,0.64101 -1.145593,1.62553 -1.144531,2.57617 5.01e-4,0.14541 0.118258,0.26317 0.263672,0.26367 0.146176,5.8e-4 0.265121,-0.11749 0.265625,-0.26367 -8.01e-4,-0.71638 0.51716,-1.65947 1.013671,-2.22852 0.09589,-0.11006 0.08453,-0.27699 -0.02539,-0.37304 -0.143001,-0.10032 -0.273263,-0.0744 -0.373047,0.0254 z"
         id="path17867"
         sodipodi:nodetypes="ccccccc" />
      <path
         id="path22111"
         style="color:#000000;fill:#fec872;stroke-width:2.9124;stroke-linecap:round;stroke-linejoin:round;-inkscape-stroke:none"
         d="m -109.08789,30.652344 -0.58399,4.132812 c 0.74267,0.793511 1.73075,1.399669 2.86329,1.703125 0.53399,0.142731 1.0825,-0.174825 1.22461,-0.708984 0.14411,-0.534034 -0.17269,-1.083618 -0.70704,-1.226563 -2.25161,-0.603318 -2.97077,-2.071528 -2.7832,-3.572265 0.0135,-0.109383 0.009,-0.220252 -0.0137,-0.328125 z m -0.84766,6 -0.58203,4.123047 c 0.74224,0.791525 1.72876,1.396276 2.85938,1.699218 0.53462,0.14398 1.08448,-0.173851 1.22656,-0.708984 0.14273,-0.533991 -0.17482,-1.082497 -0.70898,-1.224609 -2.11956,-0.567933 -2.97079,-2.079342 -2.78321,-3.580078 0.0121,-0.10285 0.008,-0.206956 -0.0117,-0.308594 z m -0.84375,5.978515 -0.58203,4.121094 c 0.74306,0.791902 1.73076,1.3977 2.86328,1.701172 0.53162,0.143259 1.07904,-0.170175 1.22461,-0.701172 0.14273,-0.533991 -0.17482,-1.082497 -0.70898,-1.224609 -2.17486,-0.582752 -2.97079,-2.079341 -2.7832,-3.580078 0.0123,-0.105527 0.008,-0.212335 -0.0137,-0.316407 z m -0.76562,5.419922 -0.58008,4.117188 c 0.74096,0.793018 1.72536,1.399795 2.85742,1.703125 0.53403,0.144108 1.08361,-0.17269 1.22656,-0.707032 0.1445,-0.532255 -0.1692,-1.081018 -0.70117,-1.226562 -2.54047,-1.31417 -2.91203,-2.205278 -2.80271,-3.886719 z"
         transform="matrix(0.26458334,0,0,0.26458334,0,280.06666)"
         sodipodi:nodetypes="ccccccccccccccscccccccccccccccc" />
      <path
         style="color:#000000;fill:#dc1c4b;stroke-width:0.770573;stroke-linecap:round;stroke-linejoin:round;-inkscape-stroke:none"
         d="m -24.490495,287.05528 c -0.535015,0.0254 -1.064027,0.25078 -1.531173,0.61289 -0.934591,0.72443 -1.642277,2.003 -1.642277,3.47679 1.6e-4,0.002 3.37e-4,0.003 5.29e-4,0.005 -1.92e-4,0.002 -3.69e-4,0.003 -5.29e-4,0.005 0.0036,2.22939 1.495868,4.08812 3.400309,4.08812 0.302469,0 0.595903,-0.0695 0.874882,-0.17777 0.303359,0.10151 0.632592,0.17777 0.984436,0.17777 1.906747,0 3.400308,-1.86282 3.40031,-4.09588 v -5.3e-4 -5.2e-4 -5.3e-4 -5.3e-4 -5.3e-4 -5.3e-4 -5.3e-4 -5.3e-4 -5.3e-4 -5.3e-4 -5.3e-4 -5.3e-4 -5.3e-4 -5.2e-4 -5.3e-4 c -0.02255,-0.90627 -0.373791,-2.09958 -1.080038,-2.94763 -0.353124,-0.42403 -0.802937,-0.76211 -1.349788,-0.89607 -0.503607,-0.12336 -1.078461,-0.0647 -1.692404,0.22221 -0.358692,-0.35869 -0.888355,-0.45948 -1.364257,-0.4625 z"
         id="path488838"
         sodipodi:nodetypes="cccccscsssssssssssssssscsccc" />
      <path
         id="path33998"
         style="color:#000000;fill:#f0517a;fill-opacity:1;stroke-width:2.9124;stroke-linecap:round;stroke-linejoin:round;-inkscape-stroke:none"
         d="m -96.855469,34.710938 c -0.161736,0.603606 0.168328,1.083633 0.703125,1.228515 0.534797,0.144882 1.087874,-0.175826 1.228516,-0.710937 0.140642,-0.535111 -0.160605,-1.096714 -0.710938,-1.220704 -0.550333,-0.12399 -1.058967,0.09952 -1.220703,0.703126 z m -2.707031,2.380859 c -0.162462,0.606315 0.167242,1.080543 0.701172,1.226562 0.53393,0.146019 1.08885,-0.173163 1.230469,-0.708984 0.141619,-0.535821 -0.161608,-1.099233 -0.712891,-1.222656 -0.551283,-0.123423 -1.056288,0.09876 -1.21875,0.705078 z m 3.863281,1.035156 c -0.156348,0.5835 0.169115,1.081605 0.703125,1.226563 0.53401,0.144958 1.086816,-0.173952 1.228516,-0.708985 0.1417,-0.535033 -0.15981,-1.098632 -0.710938,-1.222656 -0.551128,-0.124024 -1.064355,0.121578 -1.220703,0.705078 z"
         transform="matrix(0.26458334,0,0,0.26458334,0,280.06666)"
         sodipodi:nodetypes="zzzzzzzzzzzzzzz" />
      <path
         id="path555781"
         style="color:#000000;fill:#c8dae5;fill-opacity:1;stroke-width:2.9124;stroke-linecap:round;stroke-linejoin:round;-inkscape-stroke:none"
         d="m -60.361328,9.4628906 a 1.0001006,1.0001006 0 0 1 0.892578,0.5605474 l 5.085938,10.460937 a 1.0001006,1.0001006 0 0 1 -0.892579,1.439453 h 2 a 1.0001006,1.0001006 0 0 0 0.892579,-1.439453 L -57.46875,10.023438 a 1.0001006,1.0001006 0 0 0 -0.892578,-0.5605474 z"
         transform="matrix(0.26458334,0,0,0.26458334,0,280.06666)" />
      <path
         id="path574601"
         style="color:#000000;fill:#3485d0;fill-opacity:1;stroke-width:2.9124;stroke-linecap:round;stroke-linejoin:round;-inkscape-stroke:none"
         d="m -58.515625,23.923828 a 1.0000006,1.0000006 0 0 0 -0.443359,0.107422 5.77107,5.77107 0 0 1 3.277343,1.892578 h 3.402344 v -2 z"
         transform="matrix(0.26458334,0,0,0.26458334,0,280.06666)" />
      <path
         id="path579407"
         style="color:#000000;fill:#3485d0;fill-opacity:1;stroke-width:2.9124;stroke-linecap:round;stroke-linejoin:round;-inkscape-stroke:none"
         d="m -54.279297,33.878906 v 24.875 c 0.0027,-9.42e-4 0.0051,-0.003 0.0078,-0.0039 1.288013,-0.471429 1.992401,-1.426284 1.992401,-2.7442 V 35.388672 c -3.4e-5,-0.345883 -0.178786,-0.667194 -0.472656,-0.84961 -0.562204,-0.348858 -1.053807,-0.562021 -1.527344,-0.660156 z"
         transform="matrix(0.26458334,0,0,0.26458334,0,280.06666)"
         sodipodi:nodetypes="cccccccc" />
    </g>
  </g>
</svg>
